<?xml version="1.0" encoding="UTF-8"?>
<!DOCTYPE svg PUBLIC "-//W3C//DTD SVG 1.1//EN" "http://www.w3.org/Graphics/SVG/1.1/DTD/svg11.dtd">
<!-- Creator: CorelDRAW 2021.5 (Evaluation Version) -->
<svg xmlns="http://www.w3.org/2000/svg" xml:space="preserve" width="7.39902in" height="8.31403in" version="1.1" style="shape-rendering:geometricPrecision; text-rendering:geometricPrecision; image-rendering:optimizeQuality; fill-rule:evenodd; clip-rule:evenodd"
viewBox="0 0 7583.61 8521.45"
 xmlns:xlink="http://www.w3.org/1999/xlink"
 xmlns:xodm="http://www.corel.com/coreldraw/odm/2003">
 <defs>
  <style type="text/css">
   <![CDATA[
    .fil0 {fill:#199BE6;fill-rule:nonzero}
   ]]>
  </style>
 </defs>
 <g id="_23Layer_x0020_1">
  <metadata id="CorelCorpID_0Corel-Layer"/>
  <path class="fil0" d="M7204.21 3603.89l-1366.74 -791.46c-640.72,-371.03 -1461.27,-141.16 -1815.99,508.71l0 0 1658.29 939.67 -4348.61 2510.66 0 -5021.33 1658.31 957.44 0 0c347.83,-657.1 113.46,-1471.63 -530.4,-1843.37l-1320.5 -762.41c-317.08,-183.66 -738.57,-119.03 -983.39,196.08 -110.95,142.8 -155.18,326.6 -155.18,507.42l0 6916.85c0,188.28 52,378.15 172.29,523.01 152.41,183.55 369.22,276.31 586.03,276.31 131.08,0 262.37,-33.8 379.81,-101.41l6066.52 -3502.56c234.21,-135.41 379.38,-387.39 378.94,-657.78 -0.21,-270.18 -146.03,-521.73 -379.38,-655.83l-0.01 0.02z"/>
 </g>
</svg>
